<?xml version="1.0" encoding="UTF-8" standalone="no"?>
<!-- Created with Inkscape (http://www.inkscape.org/) -->

<svg
   xmlns:dc="http://purl.org/dc/elements/1.1/"
   xmlns:cc="http://creativecommons.org/ns#"
   xmlns:rdf="http://www.w3.org/1999/02/22-rdf-syntax-ns#"
   xmlns:svg="http://www.w3.org/2000/svg"
   xmlns="http://www.w3.org/2000/svg"
   xmlns:sodipodi="http://sodipodi.sourceforge.net/DTD/sodipodi-0.dtd"
   xmlns:inkscape="http://www.inkscape.org/namespaces/inkscape"
   width="210mm"
   height="297mm"
   viewBox="0 0 210 297"
   version="1.1"
   id="svg8"
   inkscape:version="0.92.4 (5da689c313, 2019-01-14)"
   sodipodi:docname="axes2.svg">
  <defs
     id="defs2">
    <clipPath
       id="clipPath831"
       clipPathUnits="userSpaceOnUse">
      <path
         inkscape:connector-curvature="0"
         id="path829"
         d="M 0,660 H 660 V 0 H 0 Z" />
    </clipPath>
  </defs>
  <sodipodi:namedview
     id="base"
     pagecolor="#ffffff"
     bordercolor="#666666"
     borderopacity="1.0"
     inkscape:pageopacity="0.0"
     inkscape:pageshadow="2"
     inkscape:zoom="0.7"
     inkscape:cx="108.54221"
     inkscape:cy="437.14213"
     inkscape:document-units="mm"
     inkscape:current-layer="g823"
     showgrid="false"
     inkscape:window-width="1920"
     inkscape:window-height="1051"
     inkscape:window-x="-9"
     inkscape:window-y="-9"
     inkscape:window-maximized="1" />
  <metadata
     id="metadata5">
    <rdf:RDF>
      <cc:Work
         rdf:about="">
        <dc:format>image/svg+xml</dc:format>
        <dc:type
           rdf:resource="http://purl.org/dc/dcmitype/StillImage" />
        <dc:title></dc:title>
      </cc:Work>
    </rdf:RDF>
  </metadata>
  <g
     inkscape:label="Layer 1"
     inkscape:groupmode="layer"
     id="layer1">
    <g
       transform="matrix(0.35277777,0,0,-0.35277777,-10.863841,269.17718)"
       inkscape:label="crossed-axes-freesvg.org"
       id="g823">
      <path
         inkscape:connector-curvature="0"
         id="path925"
         style="fill:#231f20;fill-opacity:1;fill-rule:evenodd;stroke:none"
         d="m 420.671,153.45 c -3.738,1.129 -7.644,-0.325 -9.794,-3.338 0.121,-3.7 2.565,-7.075 6.306,-8.206 3.74,-1.128 7.644,0.327 9.796,3.339 -0.123,3.699 -2.568,7.072 -6.308,8.205 m -174.695,0 c -3.741,-1.133 -6.185,-4.506 -6.307,-8.205 2.15,-3.012 6.055,-4.467 9.795,-3.339 3.74,1.131 6.184,4.506 6.307,8.206 -2.151,3.013 -6.056,4.467 -9.795,3.338 m 10.314,-12.837 c -1.126,-1.074 -2.516,-1.908 -4.107,-2.389 -5.141,-1.554 -10.552,1.125 -12.491,6.034 0.049,-0.624 0.166,-1.251 0.354,-1.874 1.419,-4.696 6.373,-7.35 11.067,-5.93 2.289,0.691 4.094,2.225 5.177,4.159 m 154.066,0 c 1.084,-1.934 2.888,-3.468 5.178,-4.159 4.694,-1.42 9.649,1.234 11.068,5.93 0.188,0.623 0.303,1.25 0.353,1.874 -1.937,-4.909 -7.35,-7.588 -12.49,-6.034 -1.592,0.481 -2.982,1.315 -4.109,2.389 m -198.199,4.399 0.765,20.321 c 1.62,43.117 22.942,83.102 57.842,108.475 18.465,13.424 34.776,29.169 48.645,46.682 l -29.932,-18.339 c -9.02,3.234 -19.039,3.581 -28.598,0.596 l -11.513,-3.597 c -19.174,23.15 -35.251,48.609 -47.888,75.725 l 28.338,33.149 C 180.902,389.852 136.478,354.979 101.287,306.771 93.043,316.734 85.284,326.846 78.16,337.175 l 1.853,3.768 -3.614,-1.19 C 66.083,354.99 57.17,370.711 50.163,387.142 l 3.164,3.605 -4.753,0.207 c -4.94,12.177 -8.827,24.748 -11.467,37.798 l 3.304,3.356 -3.945,-0.049 c -4.771,25.798 -4.663,53.486 1.833,83.739 l 6.627,0.295 -6.162,1.796 c 1.843,8.248 4.15,16.68 6.969,25.322 l 9.151,-4.523 c 2.606,-1.287 5.222,-2.527 7.846,-3.729 l -0.004,-0.003 c -23.585,-66.358 -9.74,-141.9 46.369,-192.747 -46.284,45.615 -62.246,113.762 -41.034,175.185 1.541,4.409 3.082,8.817 4.623,13.226 l -10e-4,0.004 c 28.315,-11.702 57.54,-18.456 86.914,-20.244 l -1.967,13.237 107.311,20.973 2.092,-9.913 -47.991,-21.121 c 20.88,3.519 41.573,9.582 61.805,18.197 l 4.618,-9.224 c 14.042,-28.05 20.433,-61.386 18.15,-94.667 l -13.261,-3.291 c 6.747,-32.72 20.004,-63.61 38.815,-90.886 18.811,27.275 32.067,58.167 38.813,90.886 l -13.26,3.291 c -2.284,33.281 4.108,66.617 18.149,94.667 l 4.618,9.224 c 20.233,-8.615 40.926,-14.678 61.805,-18.197 l -47.99,21.121 2.091,9.913 107.311,-20.973 -1.968,-13.237 c 29.374,1.788 58.6,8.542 86.915,20.244 l -10e-4,-0.004 c 1.54,-4.409 3.083,-8.817 4.623,-13.226 21.213,-61.423 5.251,-129.57 -41.034,-175.185 56.11,50.847 69.953,126.389 46.37,192.747 l -0.005,0.003 c 2.624,1.202 5.241,2.442 7.847,3.729 l 9.151,4.523 c 2.819,-8.642 5.125,-17.074 6.967,-25.322 l -6.161,-1.796 6.626,-0.295 c 6.496,-30.253 6.605,-57.941 1.834,-83.739 l -3.944,0.049 3.303,-3.356 c -2.64,-13.05 -6.527,-25.621 -11.467,-37.798 l -4.752,-0.207 3.163,-3.605 c -7.006,-16.431 -15.92,-32.152 -26.235,-47.389 l -3.614,1.19 1.853,-3.768 c -7.123,-10.329 -14.884,-20.441 -23.129,-30.404 -35.19,48.208 -79.614,83.081 -128.528,101.253 l 28.339,-33.149 C 444.221,347.759 428.144,322.3 408.97,299.15 l -11.512,3.597 c -17.661,5.516 -36.895,-0.341 -48.484,-14.761 -3.768,-4.69 -7.631,-9.301 -11.585,-13.833 v -0.003 l 27.183,18.59 c 7.239,-6.724 14.911,-13.052 23.001,-18.932 34.899,-25.373 56.221,-65.358 57.842,-108.475 l 0.764,-20.321 c 2.256,-59.957 -113.293,-6.775 -93.941,14.042 10.491,11.285 19.219,24.063 19.738,39.465 0.518,15.401 -5.7,30.262 -17.033,40.706 -8.94,8.236 -17.541,16.831 -25.775,25.761 -8.235,-8.93 -16.833,-17.525 -25.774,-25.761 -11.333,-10.444 -17.552,-25.305 -17.033,-40.706 0.52,-15.402 9.245,-28.18 19.738,-39.465 19.352,-20.817 -96.197,-73.999 -93.942,-14.042" />
    </g>
  </g>
</svg>
